<?xml version="1.0" encoding="UTF-8" standalone="no"?>
<!DOCTYPE svg PUBLIC "-//W3C//DTD SVG 1.1//EN" "http://www.w3.org/Graphics/SVG/1.1/DTD/svg11.dtd">
<svg xmlns="http://www.w3.org/2000/svg" xmlns:xlink="http://www.w3.org/1999/xlink" version="1.1" width="841.89pt" height="595.276pt" viewBox="0 0 841.89 595.276">
<g enable-background="new">
<g id="Layer-1" data-name="Layer 1">
<clipPath id="cp0">
<path transform="matrix(1,0,0,-1,0,595.276)" d="M 0 595.276 L 841.89 595.276 L 841.89 0 L 0 0 Z "/>
</clipPath>
<g clip-path="url(#cp0)">
<path transform="matrix(1,0,0,-1,506.5254,428.6518)" d="M 0 0 L -8.938 0 L -8.938 13.677 L .406 13.677 L .406 32.498 L 17.196 32.498 L 17.196 13.677 L 32.903 13.677 L 32.903 0 L 17.196 0 L 17.196 -27.894 C 17.196 -39.268 26.133 -40.893 30.872 -40.893 C 32.769 -40.893 33.986 -40.621 33.986 -40.621 L 33.986 -55.651 C 33.986 -55.651 31.82 -56.058 28.706 -56.058 C 19.092 -56.058 0 -53.214 0 -30.06 Z " fill="#003768"/>
<path transform="matrix(1,0,0,-1,596.4365,440.5668)" d="M 0 0 C -.271 8.26 -5.958 13.946 -12.999 13.946 C -21.801 13.946 -28.029 8.666 -29.925 0 Z M -12.999 27.217 C 6.771 27.217 17.603 12.728 17.603 -5.552 C 17.603 -7.583 17.196 -11.916 17.196 -11.916 L -30.467 -11.916 C -29.112 -24.103 -20.176 -30.467 -9.749 -30.467 C 1.354 -30.467 9.614 -22.749 9.614 -22.749 L 16.79 -34.664 C 16.79 -34.664 6.229 -45.091 -10.968 -45.091 C -33.852 -45.091 -48.069 -28.571 -48.069 -8.938 C -48.069 12.321 -33.716 27.217 -12.999 27.217 " fill="#003768"/>
<path transform="matrix(1,0,0,-1,661.5693,413.35)" d="M 0 0 C 8.937 0 25.05 -3.656 25.05 -15.572 L 25.05 -23.696 L 9.885 -23.696 L 9.885 -19.905 C 9.885 -16.114 4.197 -14.489 0 -14.489 C -11.916 -14.489 -20.446 -23.562 -20.446 -36.019 C -20.446 -50.101 -10.02 -57.277 1.083 -57.277 C 12.863 -57.277 21.529 -47.935 21.529 -47.935 L 28.706 -59.85 C 28.706 -59.85 18.415 -72.308 -.406 -72.308 C -23.154 -72.308 -37.778 -56.194 -37.778 -36.154 C -37.778 -16.655 -23.696 0 0 0 " fill="#003768"/>
<path transform="matrix(1,0,0,-1,702.6016,405.49653)" d="M 0 0 C 0 2.03 -1.083 2.979 -2.979 2.979 L -8.396 2.979 L -8.396 17.603 L 7.989 17.603 C 14.353 17.603 17.196 14.759 17.196 8.53 L 17.196 -15.707 C 17.196 -19.093 16.926 -21.53 16.926 -21.53 L 17.196 -21.53 C 20.446 -14.896 28.977 -7.854 40.893 -7.854 C 56.329 -7.854 64.995 -15.843 64.995 -34.123 L 64.995 -61.068 C 64.995 -62.965 66.078 -64.048 67.974 -64.048 L 73.391 -64.048 L 73.391 -78.536 L 57.006 -78.536 C 50.642 -78.536 47.934 -75.828 47.934 -69.328 L 47.934 -37.644 C 47.934 -29.248 45.632 -23.562 36.966 -23.562 C 27.894 -23.562 20.853 -29.519 18.279 -37.914 C 17.467 -40.622 17.196 -43.602 17.196 -46.851 L 17.196 -78.536 L 0 -78.536 Z " fill="#003768"/>
<path transform="matrix(1,0,0,-1,154.144,445.3959)" d="M 0 0 L -12.261 33.987 C -13.843 38.455 -15.82 46.309 -15.82 46.309 L -16.084 46.309 C -16.084 46.309 -18.062 38.455 -19.644 33.987 L -31.772 0 Z M -57.612 -30.195 L -55.898 -30.195 C -53.525 -30.195 -52.075 -29.789 -51.152 -27.217 L -20.83 56.6 L -10.942 56.6 L 19.38 -27.217 C 20.303 -29.789 21.621 -30.195 24.126 -30.195 L 25.708 -30.195 L 25.708 -38.591 L 21.489 -38.591 C 14.897 -38.591 12.92 -37.236 10.547 -30.737 L 2.505 -8.26 L -34.277 -8.26 L -42.451 -30.737 C -44.824 -37.236 -46.67 -38.591 -53.262 -38.591 L -57.612 -38.591 Z " fill="#003768"/>
<path transform="matrix(1,0,0,-1,238.7788,449.8647)" d="M 0 0 C 0 13.812 -6.855 27.353 -21.094 27.353 C -32.827 27.353 -42.451 17.197 -42.451 0 C -42.451 -16.79 -33.882 -27.487 -21.489 -27.487 C -10.415 -27.487 0 -19.362 0 0 M -21.885 35.612 C -5.801 35.612 -.264 22.884 -.264 22.884 L 0 22.884 C 0 22.884 -.264 25.186 -.264 28.029 L -.264 50.101 C -.264 51.996 -1.318 53.08 -3.164 53.08 L -8.701 53.08 L -8.701 61.068 L .659 61.068 C 6.328 61.068 8.701 58.632 8.701 52.809 L 8.701 -23.154 C 8.701 -25.186 9.756 -26.133 11.602 -26.133 L 17.139 -26.133 L 17.139 -34.122 L 7.91 -34.122 C 2.373 -34.122 0 -31.55 0 -26.539 C 0 -23.967 .264 -22.206 .264 -22.206 L 0 -22.206 C 0 -22.206 -5.405 -35.747 -22.808 -35.747 C -40.605 -35.747 -51.68 -21.123 -51.68 0 C -51.68 21.53 -39.287 35.612 -21.885 35.612 " fill="#003768"/>
<path transform="matrix(1,0,0,-1,266.7246,426.9809)" d="M 0 0 C -.923 2.438 -2.241 3.114 -4.614 3.114 L -5.801 3.114 L -5.801 11.104 L -2.241 11.104 C 4.087 11.104 6.064 9.75 8.306 3.656 L 24.258 -38.861 C 25.444 -42.246 26.499 -46.851 26.499 -46.851 L 26.763 -46.851 C 26.763 -46.851 27.817 -42.246 29.004 -38.861 L 44.956 3.656 C 47.197 9.75 49.175 11.104 55.371 11.104 L 58.799 11.104 L 58.799 3.114 L 57.612 3.114 C 55.239 3.114 53.789 2.438 52.998 0 L 31.377 -57.006 L 21.621 -57.006 Z " fill="#003768"/>
<path transform="matrix(1,0,0,-1,382.6055,442.9584)" d="M 0 0 C -.527 14.082 -8.965 20.988 -18.721 20.988 C -29.663 20.988 -39.287 13.676 -41.528 0 Z M -18.589 28.706 C -.264 28.706 9.229 14.218 9.229 -2.708 C 9.229 -4.333 8.965 -7.312 8.965 -7.312 L -41.924 -7.312 C -41.66 -24.509 -29.927 -34.394 -16.216 -34.394 C -4.087 -34.394 3.691 -25.998 3.691 -25.998 L 8.042 -32.904 C 8.042 -32.904 -1.582 -42.653 -16.611 -42.653 C -36.255 -42.653 -51.284 -28.029 -51.284 -7.041 C -51.284 15.301 -36.387 28.706 -18.589 28.706 " fill="#003768"/>
<path transform="matrix(1,0,0,-1,409.7593,426.8451)" d="M 0 0 C 0 1.896 -1.055 2.979 -2.9 2.979 L -8.438 2.979 L -8.438 10.968 L .791 10.968 C 6.328 10.968 8.833 8.53 8.833 3.385 L 8.833 .271 C 8.833 -2.438 8.569 -4.604 8.569 -4.604 L 8.833 -4.604 C 11.206 1.625 19.643 12.593 35.2 12.593 C 51.679 12.593 57.48 2.979 57.48 -13.812 L 57.48 -46.174 C 57.48 -48.205 58.535 -49.152 60.38 -49.152 L 65.917 -49.152 L 65.917 -57.142 L 56.557 -57.142 C 50.888 -57.142 48.515 -54.704 48.515 -48.882 L 48.515 -16.249 C 48.515 -5.552 46.933 3.927 34.145 3.927 C 22.807 3.927 13.051 -4.062 10.02 -15.301 C 9.229 -18.145 8.965 -21.259 8.965 -24.509 L 8.965 -57.142 L 0 -57.142 Z " fill="#003768"/>
<path transform="matrix(1,0,0,-1,0,595.276)" d="M 487.537 122.121 L 497.688 122.121 L 497.688 111.289 L 487.537 111.289 Z " fill="#003768"/>
<path transform="matrix(1,0,0,-1,364.1519,139.28022)" d="M 0 0 C -47.893 -11.336 -83.529 -54.366 -83.529 -105.725 C -83.529 -107.424 -83.485 -109.114 -83.408 -110.794 C -82.395 -94.324 -74.773 -74.798 -55.994 -56.02 Z " fill="#003768"/>
<path transform="matrix(1,0,0,-1,450.1104,204.78852)" d="M 0 0 L -24.359 0 L -24.359 34.5 L 9.143 35.728 L 9.143 42.883 C -4.604 54.47 -21.261 62.713 -39.58 66.348 L -39.58 58.544 C -39.58 42.978 -53.449 28.745 -69.969 12.226 L -127.57 -45.377 C -137.025 -54.833 -154.577 -72.394 -156.87 -91.066 C -155.226 -94.164 -153.437 -97.172 -151.512 -100.083 C -150.163 -89.907 -144.766 -78.59 -133.306 -67.129 L -69.977 -3.857 C -53.634 12.486 -45.727 20.271 -41.644 40.084 C -41.338 41.566 -39.646 41.561 -39.646 40.084 L -39.646 15.805 C -39.646 .239 -53.516 -13.994 -70.035 -30.513 L -122.614 -83.093 C -132.999 -93.479 -138.982 -104.783 -139.674 -114.976 C -119.875 -135.847 -91.878 -148.865 -60.839 -148.865 C -28.933 -148.865 -6.978 -136.275 8.393 -115.448 C 1.423 -106.021 0 -92.047 0 -74.257 Z " fill="#003768"/>
<path transform="matrix(1,0,0,-1,544.3447,311.9965)" d="M 0 0 C -12.964 0 -37.41 4.445 -37.41 35.558 L -37.41 111.859 L 5.556 111.859 L 5.556 149.269 L -37.41 149.269 L -37.41 200.753 L -83.339 200.753 L -83.339 157.14 L -83.339 149.269 L -108.896 149.269 L -108.896 111.859 L -84.45 111.859 L -84.45 29.632 C -84.45 10.062 -79.461 -4.198 -71.794 -14.569 C -54.648 -37.764 -24.099 -41.483 -5.927 -41.483 C 2.593 -41.483 8.519 -40.372 8.519 -40.372 L 8.519 .741 C 8.519 .741 5.185 0 0 0 " fill="#003768"/>
<path transform="matrix(1,0,0,-1,393.1572,136.432)" d="M 0 0 C -3.981 -4.37 -8.422 -8.841 -13.074 -13.493 L -75.141 -75.542 C -98.801 -99.202 -106.08 -112.572 -107.848 -125.34 C -108.474 -129.271 -109.34 -134.8 -109.34 -134.8 C -109.175 -135.464 -109.004 -136.126 -108.828 -136.786 L -108.825 -136.795 L -108.825 -136.794 C -108.299 -138.757 -107.719 -140.697 -107.087 -142.614 C -104.347 -127.883 -94.928 -111.384 -78.141 -94.598 L -12.955 -29.466 C -1.634 -18.146 5.635 -10.854 10.393 -.858 C 6.976 -.41 3.509 -.124 0 0 " fill="#003768"/>
</g>
</g>
</g>
</svg>
